<?xml version="1.0" encoding="UTF-8" standalone="no"?><svg width="101" height="107" viewBox="0 0 101 107" fill="none" xmlns="http://www.w3.org/2000/svg">
<g clip-path="url(#clip0_12_101500)">
<ellipse cx="50.1905" cy="53.5411" rx="50.1119" ry="52.8229" fill="url(#paint0_linear_12_101500)"/>
<path d="M51.6449 32.4445L46.0963 39.9883L49.0451 40.3216C48.1302 43.0121 47.9441 44.8648 48.1634 48.5475C49.5663 48.3484 50.6997 48.2774 52.1907 48.6716C51.2106 45.382 51.3131 44.258 51.7065 40.6558L54.9435 40.8591L51.6449 32.4445ZM73.3247 32.6418L62.5722 35.3233L64.6476 37.6428C59.7346 40.4126 56.6765 42.6029 54.2544 48.6407C55.5643 48.6271 57.0425 48.9015 58.6377 49.4447C59.2061 45.4563 61.9857 42.6458 66.5068 39.7189L68.4897 41.9348L73.3247 32.6418ZM27.3247 32.8481L33.8618 41.9995L35.7555 39.4357C39.2835 42.3325 41.5252 46.2516 41.4421 49.0287C43.2846 48.2522 44.4117 48.178 46.3773 48.6913C45.573 45.9051 42.0532 38.983 37.284 37.1631L38.9283 34.8381L27.3248 32.848L27.3247 32.8481ZM54.7235 52.0168C54.1996 52.0275 53.7104 52.2324 53.0429 52.8735L52.3915 53.4958L51.7155 52.8957C50.9825 52.2456 50.4041 52.0662 49.8177 52.0894C49.2315 52.1126 48.5422 52.39 47.7711 52.9516L47.1542 53.4008L46.5682 52.9209C45.6851 52.2019 44.9324 51.9887 44.2115 52.0222C43.6868 52.0467 43.1423 52.2246 42.599 52.5357L46.664 59.1158C48.1975 59.9597 51.3312 60.2772 53.486 59.2999L57.4149 52.7507C56.6697 52.4773 55.9999 52.1969 55.421 52.0894C55.2114 52.0503 55.0171 52.0219 54.8288 52.0168C54.7938 52.016 54.7586 52.016 54.7235 52.0168ZM45.7959 60.6059V60.6061C44.0063 61.7439 42.5694 63.7061 42.0128 66.5803C41.4735 69.3659 42.3233 71.2474 43.827 72.5295C45.3308 73.8118 47.588 74.4705 49.88 74.4437C52.1722 74.4169 54.458 73.7016 55.995 72.3956C57.532 71.0895 58.4012 69.2323 57.9082 66.5747C57.3984 63.8283 56.0824 61.9182 54.4163 60.7622C51.5901 62.1066 48.0562 61.8208 45.7958 60.6059H45.7959Z" fill="#0076A8"/>
</g>
<defs>
<linearGradient id="paint0_linear_12_101500" x1="89.0272" y1="0.718142" x2="46.4918" y2="104.853" gradientUnits="userSpaceOnUse">
<stop stop-color="#D3FFE7"/>
<stop offset="1" stop-color="#EFFFF6"/>
</linearGradient>
<clipPath id="clip0_12_101500">
<rect width="100.224" height="105.646" fill="white" transform="translate(0.0786133 0.71814)"/>
</clipPath>
</defs>
</svg>
