<?xml version="1.0" encoding="UTF-8" standalone="no"?><svg width="258" height="70" viewBox="0 0 258 70" fill="none" xmlns="http://www.w3.org/2000/svg">
<g filter="url(#filter0_d_21_180)">
<rect width="1920" height="94" transform="translate(-55 -12)" fill="#0076A8"/>
</g>
<g clip-path="url(#clip0_21_180)">
<g clip-path="url(#clip1_21_180)">
<path d="M20.2672 49.0701C16.189 53.1904 9.28214 53.1739 7.35324 47.6826C6.97558 46.6075 6.67364 45.5021 6.45156 44.3741C5.5448 39.7685 6.01018 34.9948 7.78884 30.6564C9.5675 26.3181 12.5796 22.6101 16.4441 20.0013C20.3087 17.3925 24.8522 16 29.5001 16C34.1479 16 38.6914 17.3925 42.5559 20.0013C46.4205 22.6101 49.4325 26.3181 51.2112 30.6565C52.9899 34.9948 53.4552 39.7685 52.5485 44.3741C52.3264 45.5021 52.0245 46.6075 51.6467 47.6826C49.7178 53.1739 42.811 53.1904 38.7328 49.0701L32.4375 42.71C31.8361 42.1023 31.8982 41.1002 32.0641 40.2574C32.1649 39.7451 32.1132 39.2141 31.9153 38.7314C31.7174 38.2488 31.3824 37.8362 30.9525 37.5461C30.5225 37.2559 30.0171 37.101 29.5001 37.101C28.983 37.101 28.4776 37.2559 28.0476 37.5461C27.6176 37.8362 27.2826 38.2488 27.0847 38.7314C26.8868 39.2141 26.8351 39.7451 26.936 40.2574C27.1019 41.1002 27.1639 42.1023 26.5625 42.71L20.2672 49.0701Z" fill="white"/>
<path d="M73.5703 33.7637H68.457L68.4297 30.9473H72.7227C73.4792 30.9473 74.099 30.8516 74.582 30.6602C75.0651 30.4596 75.4251 30.1725 75.6621 29.7988C75.9082 29.416 76.0312 28.9512 76.0312 28.4043C76.0312 27.7845 75.9128 27.2832 75.6758 26.9004C75.4479 26.5176 75.0879 26.2396 74.5957 26.0664C74.1126 25.8932 73.4883 25.8066 72.7227 25.8066H69.8789V42.5H65.7773V22.5938H72.7227C73.8802 22.5938 74.9147 22.7031 75.8262 22.9219C76.7467 23.1406 77.526 23.4733 78.1641 23.9199C78.8021 24.3665 79.2897 24.9316 79.627 25.6152C79.9642 26.2897 80.1328 27.0918 80.1328 28.0215C80.1328 28.8418 79.946 29.5983 79.5723 30.291C79.2077 30.9837 78.6289 31.5488 77.8359 31.9863C77.0521 32.4238 76.0267 32.6654 74.7598 32.7109L73.5703 33.7637ZM73.3926 42.5H67.3359L68.9355 39.3008H73.3926C74.1126 39.3008 74.7005 39.1868 75.1562 38.959C75.612 38.722 75.9492 38.403 76.168 38.002C76.3867 37.6009 76.4961 37.1406 76.4961 36.6211C76.4961 36.0378 76.3958 35.5319 76.1953 35.1035C76.0039 34.6751 75.694 34.347 75.2656 34.1191C74.8372 33.8822 74.2721 33.7637 73.5703 33.7637H69.6191L69.6465 30.9473H74.5684L75.5117 32.0547C76.724 32.0365 77.6992 32.2507 78.4375 32.6973C79.1849 33.1348 79.7272 33.7044 80.0645 34.4062C80.4108 35.1081 80.584 35.86 80.584 36.6621C80.584 37.9382 80.306 39.0137 79.75 39.8887C79.194 40.7546 78.3783 41.4062 77.3027 41.8438C76.2363 42.2812 74.9329 42.5 73.3926 42.5ZM92.1641 38.959V27.707H96.1016V42.5H92.3965L92.1641 38.959ZM92.6016 35.9238L93.7637 35.8965C93.7637 36.8809 93.6497 37.7969 93.4219 38.6445C93.194 39.4831 92.8522 40.2122 92.3965 40.832C91.9408 41.4427 91.3665 41.9212 90.6738 42.2676C89.9811 42.6048 89.1654 42.7734 88.2266 42.7734C87.5065 42.7734 86.8411 42.6732 86.2305 42.4727C85.6289 42.263 85.1094 41.9395 84.6719 41.502C84.2435 41.0553 83.9062 40.4857 83.6602 39.793C83.4232 39.0911 83.3047 38.248 83.3047 37.2637V27.707H87.2422V37.291C87.2422 37.7285 87.2923 38.0977 87.3926 38.3984C87.502 38.6992 87.6523 38.9453 87.8438 39.1367C88.0352 39.3281 88.2585 39.4648 88.5137 39.5469C88.778 39.6289 89.0697 39.6699 89.3887 39.6699C90.1999 39.6699 90.8379 39.5059 91.3027 39.1777C91.7767 38.8496 92.1094 38.403 92.3008 37.8379C92.5013 37.2637 92.6016 36.6257 92.6016 35.9238ZM107.846 39.2734V21.5H111.811V42.5H108.242L107.846 39.2734ZM98.4941 35.2812V34.9941C98.4941 33.8639 98.6217 32.8385 98.877 31.918C99.1322 30.9883 99.5059 30.1908 99.998 29.5254C100.49 28.86 101.096 28.3451 101.816 27.9805C102.536 27.6159 103.357 27.4336 104.277 27.4336C105.143 27.4336 105.9 27.6159 106.547 27.9805C107.203 28.3451 107.759 28.8646 108.215 29.5391C108.68 30.2044 109.053 30.9928 109.336 31.9043C109.618 32.8066 109.824 33.7956 109.951 34.8711V35.5C109.824 36.5299 109.618 37.487 109.336 38.3711C109.053 39.2552 108.68 40.0299 108.215 40.6953C107.759 41.3516 107.203 41.862 106.547 42.2266C105.891 42.5911 105.125 42.7734 104.25 42.7734C103.329 42.7734 102.509 42.5866 101.789 42.2129C101.078 41.8392 100.477 41.3151 99.9844 40.6406C99.5013 39.9661 99.1322 39.1732 98.877 38.2617C98.6217 37.3503 98.4941 36.3568 98.4941 35.2812ZM102.432 34.9941V35.2812C102.432 35.8919 102.477 36.4616 102.568 36.9902C102.669 37.5189 102.828 37.9883 103.047 38.3984C103.275 38.7995 103.566 39.1139 103.922 39.3418C104.286 39.5605 104.729 39.6699 105.248 39.6699C105.923 39.6699 106.479 39.5195 106.916 39.2188C107.354 38.9089 107.686 38.485 107.914 37.9473C108.151 37.4095 108.288 36.7897 108.324 36.0879V34.2969C108.297 33.7227 108.215 33.2077 108.078 32.752C107.951 32.2871 107.759 31.8906 107.504 31.5625C107.258 31.2344 106.948 30.9792 106.574 30.7969C106.21 30.6146 105.777 30.5234 105.275 30.5234C104.765 30.5234 104.327 30.6419 103.963 30.8789C103.598 31.1068 103.302 31.4212 103.074 31.8223C102.855 32.2233 102.691 32.6973 102.582 33.2441C102.482 33.7819 102.432 34.3652 102.432 34.9941ZM124.252 27.707H127.82V42.0078C127.82 43.3568 127.52 44.5007 126.918 45.4395C126.326 46.3874 125.496 47.1029 124.43 47.5859C123.363 48.0781 122.124 48.3242 120.711 48.3242C120.091 48.3242 119.435 48.2422 118.742 48.0781C118.059 47.9141 117.402 47.6589 116.773 47.3125C116.154 46.9661 115.634 46.5286 115.215 46L116.951 43.6758C117.407 44.2044 117.936 44.6146 118.537 44.9062C119.139 45.207 119.804 45.3574 120.533 45.3574C121.244 45.3574 121.846 45.2253 122.338 44.9609C122.83 44.7057 123.208 44.3275 123.473 43.8262C123.737 43.334 123.869 42.737 123.869 42.0352V31.125L124.252 27.707ZM114.299 35.2812V34.9941C114.299 33.8639 114.436 32.8385 114.709 31.918C114.992 30.9883 115.388 30.1908 115.898 29.5254C116.418 28.86 117.047 28.3451 117.785 27.9805C118.523 27.6159 119.357 27.4336 120.287 27.4336C121.271 27.4336 122.096 27.6159 122.762 27.9805C123.427 28.3451 123.974 28.8646 124.402 29.5391C124.831 30.2044 125.163 30.9928 125.4 31.9043C125.646 32.8066 125.838 33.7956 125.975 34.8711V35.5C125.838 36.5299 125.633 37.487 125.359 38.3711C125.086 39.2552 124.726 40.0299 124.279 40.6953C123.833 41.3516 123.277 41.862 122.611 42.2266C121.955 42.5911 121.171 42.7734 120.26 42.7734C119.348 42.7734 118.523 42.5866 117.785 42.2129C117.056 41.8392 116.432 41.3151 115.912 40.6406C115.393 39.9661 114.992 39.1732 114.709 38.2617C114.436 37.3503 114.299 36.3568 114.299 35.2812ZM118.236 34.9941V35.2812C118.236 35.8919 118.296 36.4616 118.414 36.9902C118.533 37.5189 118.715 37.9883 118.961 38.3984C119.216 38.7995 119.531 39.1139 119.904 39.3418C120.287 39.5605 120.738 39.6699 121.258 39.6699C121.978 39.6699 122.566 39.5195 123.021 39.2188C123.477 38.9089 123.819 38.485 124.047 37.9473C124.275 37.4095 124.407 36.7897 124.443 36.0879V34.2969C124.425 33.7227 124.348 33.2077 124.211 32.752C124.074 32.2871 123.883 31.8906 123.637 31.5625C123.391 31.2344 123.072 30.9792 122.68 30.7969C122.288 30.6146 121.823 30.5234 121.285 30.5234C120.766 30.5234 120.314 30.6419 119.932 30.8789C119.558 31.1068 119.243 31.4212 118.988 31.8223C118.742 32.2233 118.555 32.6973 118.428 33.2441C118.3 33.7819 118.236 34.3652 118.236 34.9941ZM137.691 42.7734C136.543 42.7734 135.513 42.5911 134.602 42.2266C133.69 41.8529 132.915 41.3379 132.277 40.6816C131.648 40.0254 131.165 39.2643 130.828 38.3984C130.491 37.5234 130.322 36.5938 130.322 35.6094V35.0625C130.322 33.9414 130.482 32.916 130.801 31.9863C131.12 31.0566 131.576 30.25 132.168 29.5664C132.77 28.8828 133.499 28.3587 134.355 27.9941C135.212 27.6204 136.178 27.4336 137.254 27.4336C138.302 27.4336 139.232 27.6068 140.043 27.9531C140.854 28.2995 141.533 28.7917 142.08 29.4297C142.636 30.0677 143.055 30.8333 143.338 31.7266C143.62 32.6107 143.762 33.5951 143.762 34.6797V36.3203H132.004V33.6953H139.893V33.3945C139.893 32.8477 139.792 32.36 139.592 31.9316C139.4 31.4941 139.109 31.1478 138.717 30.8926C138.325 30.6374 137.824 30.5098 137.213 30.5098C136.693 30.5098 136.247 30.6237 135.873 30.8516C135.499 31.0794 135.194 31.3984 134.957 31.8086C134.729 32.2188 134.556 32.7018 134.438 33.2578C134.328 33.8047 134.273 34.4062 134.273 35.0625V35.6094C134.273 36.2018 134.355 36.7487 134.52 37.25C134.693 37.7513 134.934 38.1842 135.244 38.5488C135.563 38.9134 135.946 39.196 136.393 39.3965C136.848 39.597 137.363 39.6973 137.938 39.6973C138.648 39.6973 139.309 39.5605 139.92 39.2871C140.54 39.0046 141.073 38.5807 141.52 38.0156L143.434 40.0938C143.124 40.5404 142.7 40.9688 142.162 41.3789C141.633 41.7891 140.995 42.1263 140.248 42.3906C139.501 42.6458 138.648 42.7734 137.691 42.7734ZM153.25 27.707V30.4961H144.637V27.707H153.25ZM146.77 24.0566H150.707V38.043C150.707 38.4714 150.762 38.7995 150.871 39.0273C150.99 39.2552 151.163 39.4147 151.391 39.5059C151.618 39.5879 151.906 39.6289 152.252 39.6289C152.498 39.6289 152.717 39.6198 152.908 39.6016C153.109 39.5742 153.277 39.5469 153.414 39.5195L153.428 42.418C153.09 42.5273 152.726 42.6139 152.334 42.6777C151.942 42.7415 151.509 42.7734 151.035 42.7734C150.169 42.7734 149.413 42.6322 148.766 42.3496C148.128 42.0579 147.635 41.5931 147.289 40.9551C146.943 40.3171 146.77 39.4785 146.77 38.4395V24.0566ZM163.531 33.7637H158.418L158.391 30.9473H162.684C163.44 30.9473 164.06 30.8516 164.543 30.6602C165.026 30.4596 165.386 30.1725 165.623 29.7988C165.869 29.416 165.992 28.9512 165.992 28.4043C165.992 27.7845 165.874 27.2832 165.637 26.9004C165.409 26.5176 165.049 26.2396 164.557 26.0664C164.074 25.8932 163.449 25.8066 162.684 25.8066H159.84V42.5H155.738V22.5938H162.684C163.841 22.5938 164.876 22.7031 165.787 22.9219C166.708 23.1406 167.487 23.4733 168.125 23.9199C168.763 24.3665 169.251 24.9316 169.588 25.6152C169.925 26.2897 170.094 27.0918 170.094 28.0215C170.094 28.8418 169.907 29.5983 169.533 30.291C169.169 30.9837 168.59 31.5488 167.797 31.9863C167.013 32.4238 165.988 32.6654 164.721 32.7109L163.531 33.7637ZM163.354 42.5H157.297L158.896 39.3008H163.354C164.074 39.3008 164.661 39.1868 165.117 38.959C165.573 38.722 165.91 38.403 166.129 38.002C166.348 37.6009 166.457 37.1406 166.457 36.6211C166.457 36.0378 166.357 35.5319 166.156 35.1035C165.965 34.6751 165.655 34.347 165.227 34.1191C164.798 33.8822 164.233 33.7637 163.531 33.7637H159.58L159.607 30.9473H164.529L165.473 32.0547C166.685 32.0365 167.66 32.2507 168.398 32.6973C169.146 33.1348 169.688 33.7044 170.025 34.4062C170.372 35.1081 170.545 35.86 170.545 36.6621C170.545 37.9382 170.267 39.0137 169.711 39.8887C169.155 40.7546 168.339 41.4062 167.264 41.8438C166.197 42.2812 164.894 42.5 163.354 42.5ZM177.312 30.9336V42.5H173.375V27.707H177.08L177.312 30.9336ZM181.77 27.6113L181.701 31.2617C181.51 31.2344 181.277 31.2116 181.004 31.1934C180.74 31.166 180.498 31.1523 180.279 31.1523C179.723 31.1523 179.24 31.2253 178.83 31.3711C178.429 31.5078 178.092 31.7129 177.818 31.9863C177.554 32.2598 177.354 32.5924 177.217 32.9844C177.089 33.3763 177.016 33.8229 176.998 34.3242L176.205 34.0781C176.205 33.1211 176.301 32.2415 176.492 31.4395C176.684 30.6283 176.962 29.9219 177.326 29.3203C177.7 28.7188 178.156 28.2539 178.693 27.9258C179.231 27.5977 179.846 27.4336 180.539 27.4336C180.758 27.4336 180.981 27.4518 181.209 27.4883C181.437 27.5156 181.624 27.5566 181.77 27.6113ZM187.785 27.707V42.5H183.834V27.707H187.785ZM183.588 23.8516C183.588 23.2773 183.788 22.8034 184.189 22.4297C184.59 22.056 185.128 21.8691 185.803 21.8691C186.468 21.8691 187.001 22.056 187.402 22.4297C187.812 22.8034 188.018 23.2773 188.018 23.8516C188.018 24.4258 187.812 24.8997 187.402 25.2734C187.001 25.6471 186.468 25.834 185.803 25.834C185.128 25.834 184.59 25.6471 184.189 25.2734C183.788 24.8997 183.588 24.4258 183.588 23.8516ZM199.775 39.2734V21.5H203.74V42.5H200.172L199.775 39.2734ZM190.424 35.2812V34.9941C190.424 33.8639 190.551 32.8385 190.807 31.918C191.062 30.9883 191.436 30.1908 191.928 29.5254C192.42 28.86 193.026 28.3451 193.746 27.9805C194.466 27.6159 195.286 27.4336 196.207 27.4336C197.073 27.4336 197.829 27.6159 198.477 27.9805C199.133 28.3451 199.689 28.8646 200.145 29.5391C200.609 30.2044 200.983 30.9928 201.266 31.9043C201.548 32.8066 201.753 33.7956 201.881 34.8711V35.5C201.753 36.5299 201.548 37.487 201.266 38.3711C200.983 39.2552 200.609 40.0299 200.145 40.6953C199.689 41.3516 199.133 41.862 198.477 42.2266C197.82 42.5911 197.055 42.7734 196.18 42.7734C195.259 42.7734 194.439 42.5866 193.719 42.2129C193.008 41.8392 192.406 41.3151 191.914 40.6406C191.431 39.9661 191.062 39.1732 190.807 38.2617C190.551 37.3503 190.424 36.3568 190.424 35.2812ZM194.361 34.9941V35.2812C194.361 35.8919 194.407 36.4616 194.498 36.9902C194.598 37.5189 194.758 37.9883 194.977 38.3984C195.204 38.7995 195.496 39.1139 195.852 39.3418C196.216 39.5605 196.658 39.6699 197.178 39.6699C197.852 39.6699 198.408 39.5195 198.846 39.2188C199.283 38.9089 199.616 38.485 199.844 37.9473C200.081 37.4095 200.217 36.7897 200.254 36.0879V34.2969C200.227 33.7227 200.145 33.2077 200.008 32.752C199.88 32.2871 199.689 31.8906 199.434 31.5625C199.188 31.2344 198.878 30.9792 198.504 30.7969C198.139 30.6146 197.706 30.5234 197.205 30.5234C196.695 30.5234 196.257 30.6419 195.893 30.8789C195.528 31.1068 195.232 31.4212 195.004 31.8223C194.785 32.2233 194.621 32.6973 194.512 33.2441C194.411 33.7819 194.361 34.3652 194.361 34.9941ZM216.182 27.707H219.75V42.0078C219.75 43.3568 219.449 44.5007 218.848 45.4395C218.255 46.3874 217.426 47.1029 216.359 47.5859C215.293 48.0781 214.053 48.3242 212.641 48.3242C212.021 48.3242 211.365 48.2422 210.672 48.0781C209.988 47.9141 209.332 47.6589 208.703 47.3125C208.083 46.9661 207.564 46.5286 207.145 46L208.881 43.6758C209.337 44.2044 209.865 44.6146 210.467 44.9062C211.068 45.207 211.734 45.3574 212.463 45.3574C213.174 45.3574 213.775 45.2253 214.268 44.9609C214.76 44.7057 215.138 44.3275 215.402 43.8262C215.667 43.334 215.799 42.737 215.799 42.0352V31.125L216.182 27.707ZM206.229 35.2812V34.9941C206.229 33.8639 206.365 32.8385 206.639 31.918C206.921 30.9883 207.318 30.1908 207.828 29.5254C208.348 28.86 208.977 28.3451 209.715 27.9805C210.453 27.6159 211.287 27.4336 212.217 27.4336C213.201 27.4336 214.026 27.6159 214.691 27.9805C215.357 28.3451 215.904 28.8646 216.332 29.5391C216.76 30.2044 217.093 30.9928 217.33 31.9043C217.576 32.8066 217.768 33.7956 217.904 34.8711V35.5C217.768 36.5299 217.562 37.487 217.289 38.3711C217.016 39.2552 216.656 40.0299 216.209 40.6953C215.762 41.3516 215.206 41.862 214.541 42.2266C213.885 42.5911 213.101 42.7734 212.189 42.7734C211.278 42.7734 210.453 42.5866 209.715 42.2129C208.986 41.8392 208.361 41.3151 207.842 40.6406C207.322 39.9661 206.921 39.1732 206.639 38.2617C206.365 37.3503 206.229 36.3568 206.229 35.2812ZM210.166 34.9941V35.2812C210.166 35.8919 210.225 36.4616 210.344 36.9902C210.462 37.5189 210.645 37.9883 210.891 38.3984C211.146 38.7995 211.46 39.1139 211.834 39.3418C212.217 39.5605 212.668 39.6699 213.188 39.6699C213.908 39.6699 214.495 39.5195 214.951 39.2188C215.407 38.9089 215.749 38.485 215.977 37.9473C216.204 37.4095 216.337 36.7897 216.373 36.0879V34.2969C216.355 33.7227 216.277 33.2077 216.141 32.752C216.004 32.2871 215.812 31.8906 215.566 31.5625C215.32 31.2344 215.001 30.9792 214.609 30.7969C214.217 30.6146 213.753 30.5234 213.215 30.5234C212.695 30.5234 212.244 30.6419 211.861 30.8789C211.488 31.1068 211.173 31.4212 210.918 31.8223C210.672 32.2233 210.485 32.6973 210.357 33.2441C210.23 33.7819 210.166 34.3652 210.166 34.9941ZM229.621 42.7734C228.473 42.7734 227.443 42.5911 226.531 42.2266C225.62 41.8529 224.845 41.3379 224.207 40.6816C223.578 40.0254 223.095 39.2643 222.758 38.3984C222.421 37.5234 222.252 36.5938 222.252 35.6094V35.0625C222.252 33.9414 222.411 32.916 222.73 31.9863C223.049 31.0566 223.505 30.25 224.098 29.5664C224.699 28.8828 225.428 28.3587 226.285 27.9941C227.142 27.6204 228.108 27.4336 229.184 27.4336C230.232 27.4336 231.161 27.6068 231.973 27.9531C232.784 28.2995 233.463 28.7917 234.01 29.4297C234.566 30.0677 234.985 30.8333 235.268 31.7266C235.55 32.6107 235.691 33.5951 235.691 34.6797V36.3203H223.934V33.6953H231.822V33.3945C231.822 32.8477 231.722 32.36 231.521 31.9316C231.33 31.4941 231.038 31.1478 230.646 30.8926C230.255 30.6374 229.753 30.5098 229.143 30.5098C228.623 30.5098 228.176 30.6237 227.803 30.8516C227.429 31.0794 227.124 31.3984 226.887 31.8086C226.659 32.2188 226.486 32.7018 226.367 33.2578C226.258 33.8047 226.203 34.4062 226.203 35.0625V35.6094C226.203 36.2018 226.285 36.7487 226.449 37.25C226.622 37.7513 226.864 38.1842 227.174 38.5488C227.493 38.9134 227.876 39.196 228.322 39.3965C228.778 39.597 229.293 39.6973 229.867 39.6973C230.578 39.6973 231.239 39.5605 231.85 39.2871C232.469 39.0046 233.003 38.5807 233.449 38.0156L235.363 40.0938C235.053 40.5404 234.63 40.9688 234.092 41.3789C233.563 41.7891 232.925 42.1263 232.178 42.3906C231.43 42.6458 230.578 42.7734 229.621 42.7734ZM241.871 30.9336V42.5H237.934V27.707H241.639L241.871 30.9336ZM246.328 27.6113L246.26 31.2617C246.068 31.2344 245.836 31.2116 245.562 31.1934C245.298 31.166 245.057 31.1523 244.838 31.1523C244.282 31.1523 243.799 31.2253 243.389 31.3711C242.988 31.5078 242.65 31.7129 242.377 31.9863C242.113 32.2598 241.912 32.5924 241.775 32.9844C241.648 33.3763 241.575 33.8229 241.557 34.3242L240.764 34.0781C240.764 33.1211 240.859 32.2415 241.051 31.4395C241.242 30.6283 241.52 29.9219 241.885 29.3203C242.258 28.7188 242.714 28.2539 243.252 27.9258C243.79 27.5977 244.405 27.4336 245.098 27.4336C245.316 27.4336 245.54 27.4518 245.768 27.4883C245.995 27.5156 246.182 27.5566 246.328 27.6113Z" fill="#FFFDFD"/>
</g>
</g>
<defs>
<filter id="filter0_d_21_180" x="-95" y="-48" width="2000" height="174" filterUnits="userSpaceOnUse" color-interpolation-filters="sRGB">
<feFlood flood-opacity="0" result="BackgroundImageFix"/>
<feColorMatrix in="SourceAlpha" type="matrix" values="0 0 0 0 0 0 0 0 0 0 0 0 0 0 0 0 0 0 127 0" result="hardAlpha"/>
<feOffset dy="4"/>
<feGaussianBlur stdDeviation="20"/>
<feComposite in2="hardAlpha" operator="out"/>
<feColorMatrix type="matrix" values="0 0 0 0 0 0 0 0 0 0 0 0 0 0 0 0 0 0 0.1 0"/>
<feBlend mode="normal" in2="BackgroundImageFix" result="effect1_dropShadow_21_180"/>
<feBlend mode="normal" in="SourceGraphic" in2="effect1_dropShadow_21_180" result="shape"/>
</filter>
<clipPath id="clip0_21_180">
<rect width="1776" height="39" fill="white" transform="translate(6 15)"/>
</clipPath>
<clipPath id="clip1_21_180">
<rect width="1607" height="38" fill="white" transform="translate(6 15.5)"/>
</clipPath>
</defs>
</svg>
