<?xml version="1.0" encoding="UTF-8" standalone="no"?><svg width="65" height="65" viewBox="0 0 65 65" fill="none" xmlns="http://www.w3.org/2000/svg">
<g clip-path="url(#clip0_8_457)">
<path d="M35.521 29.8V17H29.121V29.8H16.321V36.2H29.121V49H35.521V36.2H48.321V29.8H35.521ZM32.321 65C23.8341 65 15.6947 61.6286 9.69357 55.6274C3.6924 49.6263 0.320984 41.4869 0.320984 33C0.320984 24.5131 3.6924 16.3737 9.69357 10.3726C15.6947 4.37142 23.8341 1 32.321 1C40.8079 1 48.9472 4.37142 54.9484 10.3726C60.9496 16.3737 64.321 24.5131 64.321 33C64.321 41.4869 60.9496 49.6263 54.9484 55.6274C48.9472 61.6286 40.8079 65 32.321 65Z" fill="#C04C0B"/>
</g>
<defs>
<clipPath id="clip0_8_457">
<rect width="64" height="64" fill="white" transform="translate(0.754089 0.904785)"/>
</clipPath>
</defs>
</svg>
