<?xml version="1.0" encoding="UTF-8" standalone="no"?><svg width="32" height="32" viewBox="0 0 32 32" fill="none" xmlns="http://www.w3.org/2000/svg">
<path d="M16 0C24.8368 0 32 7.1632 32 16C32 24.8368 24.8368 32 16 32C7.1632 32 0 24.8368 0 16C0 7.1632 7.1632 0 16 0ZM23.3536 8.6464C23.1951 8.48793 22.9859 8.39034 22.7627 8.37073C22.5395 8.35113 22.3164 8.41077 22.1328 8.5392C17.5088 11.784 14.9008 13.7072 14.3024 14.3024C13.8522 14.7526 13.5992 15.3633 13.5992 16C13.5992 16.6367 13.8522 17.2474 14.3024 17.6976C14.7526 18.1478 15.3633 18.4008 16 18.4008C16.6367 18.4008 17.2474 18.1478 17.6976 17.6976C18.048 17.3456 19.9664 14.736 23.4544 9.8624C23.5842 9.68056 23.6453 9.45858 23.6269 9.23593C23.6084 9.01327 23.5116 8.80438 23.3536 8.6464ZM24.8 14.4C24.3757 14.4 23.9687 14.5686 23.6686 14.8686C23.3686 15.1687 23.2 15.5757 23.2 16C23.2 16.4243 23.3686 16.8313 23.6686 17.1314C23.9687 17.4314 24.3757 17.6 24.8 17.6C25.2243 17.6 25.6313 17.4314 25.9314 17.1314C26.2314 16.8313 26.4 16.4243 26.4 16C26.4 15.5757 26.2314 15.1687 25.9314 14.8686C25.6313 14.5686 25.2243 14.4 24.8 14.4ZM7.2 14.4C6.77565 14.4 6.36869 14.5686 6.06863 14.8686C5.76857 15.1687 5.6 15.5757 5.6 16C5.6 16.4243 5.76857 16.8313 6.06863 17.1314C6.36869 17.4314 6.77565 17.6 7.2 17.6C7.62435 17.6 8.03131 17.4314 8.33137 17.1314C8.63143 16.8313 8.8 16.4243 8.8 16C8.8 15.5757 8.63143 15.1687 8.33137 14.8686C8.03131 14.5686 7.62435 14.4 7.2 14.4ZM10.9088 8.6464C10.7612 8.49358 10.5847 8.37169 10.3894 8.28784C10.1942 8.20398 9.98429 8.15985 9.77184 8.158C9.55939 8.15615 9.34871 8.19664 9.15207 8.27709C8.95544 8.35753 8.7768 8.47634 8.62657 8.62657C8.47634 8.7768 8.35753 8.95544 8.27709 9.15207C8.19664 9.34871 8.15615 9.55939 8.158 9.77184C8.15985 9.98429 8.20398 10.1942 8.28784 10.3894C8.37169 10.5847 8.49358 10.7612 8.6464 10.9088C8.94816 11.2003 9.35233 11.3615 9.77184 11.3579C10.1914 11.3542 10.5927 11.186 10.8893 10.8893C11.186 10.5927 11.3542 10.1914 11.3579 9.77184C11.3615 9.35233 11.2003 8.94816 10.9088 8.6464ZM16 5.6C15.5757 5.6 15.1687 5.76857 14.8686 6.06863C14.5686 6.36869 14.4 6.77565 14.4 7.2C14.4 7.62435 14.5686 8.03131 14.8686 8.33137C15.1687 8.63143 15.5757 8.8 16 8.8C16.4243 8.8 16.8313 8.63143 17.1314 8.33137C17.4314 8.03131 17.6 7.62435 17.6 7.2C17.6 6.77565 17.4314 6.36869 17.1314 6.06863C16.8313 5.76857 16.4243 5.6 16 5.6Z" fill="white"/>
</svg>
