<?xml version="1.0" encoding="UTF-8" standalone="no"?><svg width="47" height="36" viewBox="0 0 47 36" fill="none" xmlns="http://www.w3.org/2000/svg">
<path d="M14.2672 33.0701C10.189 37.1904 3.28214 37.1739 1.35324 31.6826C0.975583 30.6075 0.673637 29.5021 0.451556 28.3741C-0.455196 23.7685 0.0101821 18.9948 1.78884 14.6564C3.5675 10.3181 6.57955 6.61011 10.4441 4.00128C14.3087 1.39246 18.8522 -2.01148e-07 23.5001 0C28.1479 2.01149e-07 32.6914 1.39246 36.5559 4.00128C40.4205 6.61011 43.4325 10.3181 45.2112 14.6565C46.9899 18.9948 47.4552 23.7685 46.5485 28.3741C46.3264 29.5021 46.0245 30.6075 45.6467 31.6826C43.7178 37.1739 36.811 37.1904 32.7328 33.0701L26.4375 26.71C25.8361 26.1023 25.8982 25.1002 26.0641 24.2574C26.1649 23.7451 26.1132 23.2141 25.9153 22.7314C25.7174 22.2488 25.3824 21.8362 24.9525 21.5461C24.5225 21.2559 24.0171 21.101 23.5001 21.101C22.983 21.101 22.4776 21.2559 22.0476 21.5461C21.6176 21.8362 21.2826 22.2488 21.0847 22.7314C20.8868 23.2141 20.8351 23.7451 20.936 24.2574C21.1019 25.1002 21.1639 26.1023 20.5625 26.71L14.2672 33.0701Z" fill="white"/>
</svg>
